<svg width="219" height="50" viewBox="0 0 219 50" fill="none" xmlns="http://www.w3.org/2000/svg">
<path d="M76.5 26.081C76.28 25.839 75.961 25.586 75.543 25.322C75.125 25.036 74.63 24.772 74.058 24.53C73.508 24.288 72.892 24.09 72.21 23.936C71.55 23.782 70.868 23.705 70.164 23.705C68.602 23.705 67.447 23.991 66.699 24.563C65.973 25.135 65.61 25.927 65.61 26.939C65.61 27.511 65.72 27.984 65.94 28.358C66.182 28.71 66.545 29.029 67.029 29.315C67.513 29.579 68.118 29.821 68.844 30.041C69.57 30.239 70.417 30.459 71.385 30.701C72.573 30.987 73.64 31.306 74.586 31.658C75.554 32.01 76.368 32.439 77.028 32.945C77.688 33.451 78.194 34.078 78.546 34.826C78.92 35.552 79.107 36.443 79.107 37.499C79.107 38.687 78.876 39.71 78.414 40.568C77.974 41.426 77.358 42.13 76.566 42.68C75.796 43.208 74.894 43.604 73.86 43.868C72.826 44.11 71.715 44.231 70.527 44.231C68.745 44.231 67.018 43.967 65.346 43.439C63.696 42.889 62.2 42.097 60.858 41.063L62.541 37.895C62.827 38.181 63.234 38.5 63.762 38.852C64.312 39.204 64.939 39.534 65.643 39.842C66.369 40.128 67.15 40.381 67.986 40.601C68.822 40.799 69.691 40.898 70.593 40.898C72.045 40.898 73.167 40.645 73.959 40.139C74.751 39.633 75.147 38.885 75.147 37.895C75.147 37.301 74.993 36.806 74.685 36.41C74.399 36.014 73.981 35.673 73.431 35.387C72.881 35.079 72.21 34.804 71.418 34.562C70.626 34.32 69.724 34.067 68.712 33.803C67.546 33.495 66.523 33.176 65.643 32.846C64.785 32.494 64.07 32.076 63.498 31.592C62.926 31.108 62.486 30.547 62.178 29.909C61.892 29.249 61.749 28.457 61.749 27.533C61.749 26.389 61.969 25.377 62.409 24.497C62.849 23.595 63.443 22.847 64.191 22.253C64.961 21.637 65.863 21.175 66.897 20.867C67.931 20.559 69.053 20.405 70.263 20.405C71.847 20.405 73.31 20.658 74.652 21.164C75.994 21.67 77.171 22.297 78.183 23.045L76.5 26.081ZM93.2088 44.165C91.5368 44.165 90.0078 43.835 88.6218 43.175C87.2578 42.493 86.0808 41.602 85.0908 40.502C84.1008 39.38 83.3308 38.104 82.7808 36.674C82.2528 35.244 81.9888 33.781 81.9888 32.285C81.9888 30.723 82.2748 29.227 82.8468 27.797C83.4188 26.367 84.1998 25.102 85.1898 24.002C86.2018 22.902 87.3898 22.033 88.7538 21.395C90.1398 20.735 91.6468 20.405 93.2748 20.405C94.9468 20.405 96.4648 20.757 97.8288 21.461C99.2148 22.143 100.392 23.045 101.36 24.167C102.35 25.289 103.109 26.565 103.637 27.995C104.187 29.403 104.462 30.844 104.462 32.318C104.462 33.88 104.176 35.376 103.604 36.806C103.054 38.236 102.273 39.501 101.261 40.601C100.249 41.679 99.0498 42.548 97.6638 43.208C96.2998 43.846 94.8148 44.165 93.2088 44.165ZM85.7508 32.285C85.7508 33.385 85.9268 34.452 86.2788 35.486C86.6308 36.52 87.1258 37.433 87.7638 38.225C88.4238 39.017 89.2158 39.655 90.1398 40.139C91.0638 40.601 92.0978 40.832 93.2418 40.832C94.4298 40.832 95.4748 40.59 96.3768 40.106C97.3008 39.6 98.0818 38.94 98.7198 38.126C99.3578 37.312 99.8418 36.399 100.172 35.387C100.502 34.375 100.667 33.341 100.667 32.285C100.667 31.163 100.491 30.096 100.139 29.084C99.7868 28.05 99.2808 27.148 98.6208 26.378C97.9828 25.586 97.2018 24.959 96.2778 24.497C95.3758 24.013 94.3638 23.771 93.2418 23.771C92.0538 23.771 90.9978 24.024 90.0738 24.53C89.1498 25.014 88.3688 25.652 87.7308 26.444C87.0928 27.236 86.5978 28.149 86.2458 29.183C85.9158 30.195 85.7508 31.229 85.7508 32.285Z" fill="#6DCFF3"/>
<path d="M125.019 40.007V44H108.75V20.57H124.722V24.563H113.304V30.206H123.171V33.902H113.304V40.007H125.019ZM135.896 20.57H139.922L148.832 44H144.146L141.968 38.159H133.784L131.639 44H126.953L135.896 20.57ZM141.143 34.958L137.909 25.751L134.543 34.958H141.143ZM165.666 26.708C165.512 26.554 165.226 26.345 164.808 26.081C164.412 25.817 163.917 25.564 163.323 25.322C162.751 25.058 162.124 24.838 161.442 24.662C160.76 24.486 160.067 24.398 159.363 24.398C158.109 24.398 157.174 24.629 156.558 25.091C155.942 25.553 155.634 26.202 155.634 27.038C155.634 27.522 155.744 27.929 155.964 28.259C156.206 28.567 156.547 28.842 156.987 29.084C157.427 29.326 157.977 29.546 158.637 29.744C159.319 29.942 160.1 30.151 160.98 30.371C162.124 30.679 163.158 31.009 164.082 31.361C165.028 31.713 165.82 32.153 166.458 32.681C167.118 33.209 167.624 33.847 167.976 34.595C168.328 35.321 168.504 36.223 168.504 37.301C168.504 38.555 168.262 39.633 167.778 40.535C167.316 41.415 166.678 42.13 165.864 42.68C165.072 43.23 164.148 43.637 163.092 43.901C162.058 44.143 160.969 44.264 159.825 44.264C158.065 44.264 156.327 44 154.611 43.472C152.895 42.944 151.355 42.196 149.991 41.228L152.004 37.301C152.202 37.499 152.554 37.763 153.06 38.093C153.588 38.401 154.204 38.72 154.908 39.05C155.612 39.358 156.393 39.622 157.251 39.842C158.109 40.062 158.989 40.172 159.891 40.172C162.399 40.172 163.653 39.369 163.653 37.763C163.653 37.257 163.51 36.828 163.224 36.476C162.938 36.124 162.531 35.816 162.003 35.552C161.475 35.288 160.837 35.046 160.089 34.826C159.341 34.606 158.505 34.364 157.581 34.1C156.459 33.792 155.48 33.462 154.644 33.11C153.83 32.736 153.148 32.307 152.598 31.823C152.048 31.317 151.63 30.745 151.344 30.107C151.08 29.447 150.948 28.666 150.948 27.764C150.948 26.576 151.168 25.52 151.608 24.596C152.048 23.672 152.653 22.902 153.423 22.286C154.215 21.67 155.128 21.208 156.162 20.9C157.196 20.57 158.307 20.405 159.495 20.405C161.145 20.405 162.663 20.669 164.049 21.197C165.435 21.703 166.645 22.308 167.679 23.012L165.666 26.708ZM174.762 20.57L180.537 31.856L186.411 20.57H191.328L182.814 35.816V44H178.293V35.75L169.812 20.57H174.762Z" fill="#4096D2"/>
<path d="M20.9858 50C20.8726 50 20.7734 50 20.6743 50C20.6035 50 20.5185 50 20.4477 50C20.292 50 20.1362 49.9865 19.9804 49.9865C19.9663 49.9865 19.9521 49.9865 19.9521 49.9865C19.938 49.9865 19.938 49.9865 19.9238 49.9865C13.3675 49.6626 7.25017 46.3698 3.56844 41.1606C1.23196 37.8542 0 34.0081 0 30C0 28.583 0.155766 27.2874 0.481457 25.83C0.623062 25.2092 1.26028 24.8178 1.91167 24.9528C2.56305 25.0877 2.9737 25.695 2.8321 26.3158C2.53473 27.6113 2.40728 28.7449 2.40728 30C2.40728 33.5358 3.49764 36.9501 5.56507 39.8785C8.82198 44.4939 14.2171 47.4089 20.0229 47.6923C20.0512 47.6923 20.0796 47.6923 20.1079 47.6923C20.2353 47.6923 20.3769 47.7058 20.5185 47.7058C20.5327 47.7058 20.5327 47.7058 20.5469 47.7058C20.6035 47.7058 20.6601 47.7058 20.7168 47.7058C20.915 47.7058 21.0991 47.7058 21.2974 47.7058C21.354 47.7058 21.4107 47.7058 21.4673 47.7058C21.4815 47.7058 21.4815 47.7058 21.4956 47.7058C21.6372 47.7058 21.7647 47.6923 21.9063 47.6923C21.9346 47.6923 21.9629 47.6923 21.9912 47.6923C27.797 47.4089 33.1922 44.4804 36.4491 39.8785C38.5165 36.9501 39.6069 33.5358 39.6069 30C39.6069 27.9082 39.2245 25.8569 38.474 23.9001C35.7977 16.9501 28.7883 12.2807 21.0142 12.2807C14.4295 12.2807 8.26972 15.6545 4.94201 21.0931C4.60216 21.6464 3.86581 21.8219 3.29939 21.5115C2.71881 21.1876 2.53473 20.4858 2.86042 19.946C4.67296 16.9771 7.27849 14.4804 10.3938 12.7395C13.5941 10.9447 17.2758 10 21.0142 10C25.4039 10 29.5954 11.2821 33.1639 13.6842C36.6473 16.0459 39.267 19.3117 40.7256 23.1174C41.5752 25.3171 42 27.6383 42 30C42 33.9946 40.768 37.8542 38.4316 41.1606C34.7498 46.3698 28.6467 49.6761 22.0762 49.9865C22.062 49.9865 22.062 49.9865 22.0479 49.9865C22.0337 49.9865 22.0196 49.9865 22.0196 49.9865C21.8638 50 21.708 50 21.5523 50C21.4815 50 21.3965 50 21.3257 50C21.1982 50 21.085 50 20.9858 50ZM19.938 49.973C19.9521 49.973 19.9521 49.973 19.9663 49.973C19.9521 49.973 19.938 49.973 19.938 49.973Z" fill="#6DCFF3"/>
<path d="M21.7273 50C21.6141 50 21.515 50 21.4159 50C21.3451 50 21.2601 50 21.1893 50C21.0336 50 20.8779 49.9871 20.7222 49.9871C20.708 49.9871 20.6939 49.9871 20.6939 49.9871C20.6655 49.9871 20.6372 49.9871 20.6231 49.9871C20.0143 49.9357 19.4481 49.6915 19.0234 49.2931C15.3992 45.9257 12.8368 42.4683 11.4212 39.0108C10.3877 36.5045 9.89223 33.6769 10.0196 31.0421C10.048 30.438 10.6142 29.9753 11.2796 30.001C11.945 30.0267 12.4546 30.5408 12.4263 31.1449C12.313 33.497 12.7519 36.0161 13.6721 38.2525C14.9745 41.4272 17.3529 44.6275 20.7363 47.7636C20.7646 47.7893 20.793 47.8022 20.8213 47.8022C20.8354 47.8022 20.8354 47.8022 20.8496 47.8022C20.977 47.8022 21.1186 47.815 21.2601 47.815C21.2743 47.815 21.2743 47.815 21.2884 47.815C21.3451 47.815 21.4017 47.815 21.4583 47.815C21.6565 47.815 21.8406 47.815 22.0388 47.815C22.0954 47.815 22.152 47.815 22.2086 47.815C22.2228 47.815 22.2228 47.815 22.237 47.815C22.3785 47.815 22.5059 47.8022 22.6475 47.8022C22.6617 47.8022 22.6617 47.8022 22.6758 47.8022C22.7041 47.8022 22.7466 47.7765 22.7608 47.7636C25.5355 45.1802 27.3759 42.9438 28.7208 40.5018C29.0181 39.9619 29.7401 39.7435 30.3346 40.0134C30.9292 40.2833 31.1699 40.9388 30.8726 41.4786C29.4144 44.1263 27.4325 46.5426 24.4737 49.2931C24.049 49.6915 23.4827 49.9357 22.874 49.9871C22.8457 49.9871 22.8174 49.9871 22.8032 49.9871C22.7891 49.9871 22.7749 49.9871 22.7749 49.9871C22.6192 50 22.4635 50 22.3077 50C22.237 50 22.152 50 22.0812 50C21.9397 50 21.8264 50 21.7273 50ZM20.6797 49.9743C20.6939 49.9743 20.6939 49.9743 20.708 49.9743C20.6939 49.9743 20.6797 49.9743 20.6797 49.9743Z" fill="#BCD641"/>
<path d="M31.1893 37C31.1019 37 30.9999 36.9863 30.9125 36.9726C30.2423 36.8358 29.8344 36.2063 29.9801 35.5768C30.6648 32.744 30.7085 29.9113 30.1258 27.407C28.9457 22.4531 25.7552 17.1161 21.1368 12.3675C21.1077 12.3264 21.064 12.3127 21.0057 12.3127C20.962 12.3127 20.9183 12.3264 20.8746 12.3675C16.6934 16.6508 13.8525 21.0573 12.4247 25.4774C12.2207 26.0933 11.536 26.4354 10.8804 26.2575C10.2248 26.0659 9.8606 25.4227 10.05 24.8069C11.5797 20.0583 14.61 15.3371 19.0389 10.8074C19.5343 10.3011 20.2482 10 20.9912 10C21.7342 10 22.448 10.2874 22.9434 10.8074C27.8531 15.8434 31.2622 21.5636 32.5296 26.9143C33.1998 29.7608 33.1561 32.9356 32.384 36.1105C32.2674 36.6305 31.7575 37 31.1893 37Z" fill="#6DCFF3"/>
<path d="M20.9855 50C20.87 50 20.7688 50 20.6677 50C20.5954 50 20.5087 50 20.4365 50C20.2775 50 20.1186 49.9865 19.9596 49.9865C19.9452 49.9865 19.9307 49.9865 19.9307 49.9865C19.9163 49.9865 19.9163 49.9865 19.9018 49.9865C13.2116 49.6635 6.96933 46.3788 3.21241 41.1827C3.01011 40.9135 2.95232 40.5769 3.03901 40.2673C3.12571 39.9577 3.35691 39.6885 3.66035 39.5404C5.91451 38.45 8.48655 37.5885 11.3187 36.9962C14.3965 36.3365 17.6477 36 21 36C24.3523 36 27.6035 36.3365 30.6813 36.9962C33.5134 37.6019 36.0855 38.4635 38.3396 39.5404C38.6575 39.6885 38.8743 39.9577 38.961 40.2673C39.0477 40.5769 38.9899 40.9135 38.7876 41.1827C35.0307 46.3788 28.8028 49.6769 22.0982 49.9865C22.0837 49.9865 22.0837 49.9865 22.0693 49.9865C22.0548 49.9865 22.0404 49.9865 22.0404 49.9865C21.8814 50 21.7225 50 21.5635 50C21.4913 50 21.4046 50 21.3323 50C21.2023 50 21.0867 50 20.9855 50ZM19.9163 49.9731C19.9307 49.9731 19.9307 49.9731 19.9452 49.9731C19.9307 49.9731 19.9163 49.9731 19.9163 49.9731ZM20.0752 47.6846C20.2053 47.6846 20.3498 47.6981 20.4943 47.6981C20.5087 47.6981 20.5087 47.6981 20.5232 47.6981C20.581 47.6981 20.6388 47.6981 20.6966 47.6981C20.8989 47.6981 21.0867 47.6981 21.289 47.6981C21.3468 47.6981 21.4046 47.6981 21.4624 47.6981C21.4768 47.6981 21.4768 47.6981 21.4913 47.6981C21.6358 47.6981 21.7658 47.6846 21.9103 47.6846C21.9392 47.6846 21.9681 47.6846 21.997 47.6846C27.4446 47.4288 32.5453 44.9385 35.9121 40.9673C34.1637 40.2404 32.2274 39.6481 30.1322 39.2038C27.2423 38.5846 24.1645 38.275 21 38.275C17.8355 38.275 14.7722 38.5846 11.8678 39.2038C9.77258 39.6481 7.83632 40.2404 6.0879 40.9673C9.45468 44.9385 14.5554 47.4288 20.003 47.6846C20.0174 47.6846 20.0463 47.6846 20.0752 47.6846Z" fill="#80C342"/>
<path d="M47.0357 13.9608C46.3733 13.8209 45.7253 14.2407 45.5813 14.8845C45.0054 17.5577 42.9319 20.1889 39.8217 22.2463C38.2666 18.8733 35.8331 15.9902 32.6941 13.8209C29.0655 11.3156 24.8033 10 20.3396 10C16.3798 10 12.5064 11.0497 9.15143 13.0511C5.85401 14.9965 3.19017 17.7677 1.43347 21.0427C0.771107 22.2883 0.814304 24.4437 1.93744 25.6613C5.60923 29.6641 13.0392 30 20.3396 30C27.9136 30 35.0267 28.1805 39.8937 25.0175C44.2422 22.5262 47.194 18.9993 47.9716 15.3604C48.1156 14.7166 47.698 14.0868 47.0357 13.9608ZM20.354 27.6207C13.6152 27.6207 6.77556 27.3408 3.78053 24.0798C3.39176 23.6599 3.39176 22.5542 3.62214 22.1344C6.83316 16.1162 13.2552 12.3793 20.354 12.3793C27.9279 12.3793 34.7964 16.83 37.7482 23.5479C33.2988 26.1372 27.0352 27.6207 20.354 27.6207Z" fill="#4096D2"/>
<path d="M63.0625 14.2614L49.8437 11.999C49.1842 11.8838 48.5391 12.1875 48.3813 12.6589C48.3813 12.6693 48.3813 12.6693 48.3813 12.6798C48.367 12.7322 48.2953 12.7636 48.2523 12.7845C48.152 12.8264 48.0373 12.8369 47.9082 12.816L46.9333 12.6484C46.7039 12.6065 46.5749 12.4703 46.6035 12.3656V12.3551C46.7613 11.8733 46.3455 11.402 45.7003 11.2868L32.4959 9.02446C31.8364 8.90925 31.1912 9.21299 31.0335 9.68431C30.8758 10.1661 31.2915 10.6374 31.9367 10.7526L44.2379 12.8579C44.4817 13.5806 45.2845 14.188 46.3742 14.3766L47.3491 14.5441C47.5785 14.586 47.8079 14.5965 48.0229 14.5965C48.5247 14.5965 49.0122 14.5022 49.4566 14.3242C49.7434 14.209 49.9871 14.0519 50.1878 13.8738L62.5034 15.9791C62.6037 16 62.6897 16 62.7758 16C63.3349 16 63.8367 15.7277 63.9657 15.3087C64.1234 14.8584 63.722 14.3766 63.0625 14.2614Z" fill="#4096D2"/>
<path d="M51.4875 6.67344C50.9809 6.92291 56.1604 6.14954 62.9162 7.62144C62.9585 7.63391 63.0007 7.65886 63.0148 7.68381C63.2118 8.03307 63.3807 8.38234 63.5215 8.74407C63.5496 8.83139 63.4652 8.9187 63.3666 8.90623C61.1851 8.4447 56.7656 7.69628 55.5552 7.82102C55.5411 7.82102 55.5411 7.84597 55.5552 7.84597C56.6248 7.90833 60.5235 8.76902 63.7326 9.60476C63.7748 9.61723 63.817 9.65465 63.8311 9.69208C63.9156 10.0413 63.9719 10.4031 64 10.7648C64 10.8521 63.9156 10.9145 63.817 10.8896C61.6354 10.2409 55.4566 8.50707 51.2201 8.41976C51.1357 8.41976 51.1216 8.53202 51.2061 8.54449C55.7944 9.08086 61.368 10.7274 63.9015 11.7627C63.9578 11.7877 63.9859 11.8251 63.9718 11.875C63.9437 12.1619 63.8874 12.4488 63.817 12.7357C63.803 12.798 63.7889 12.8479 63.7748 12.9103C63.7607 12.9727 63.6763 13.0101 63.6059 12.9976L49.1089 9.99144C49.0385 9.97897 48.9963 9.9166 48.9963 9.85423C49.0526 9.51744 49.1652 8.50707 48.7007 8.40728C48.2363 8.30749 47.8844 9.26797 47.7718 9.59229C47.7577 9.65465 47.6733 9.69208 47.6029 9.6796L33.1059 6.67344C33.0356 6.66096 32.9793 6.59859 33.0074 6.52375C33.0215 6.46138 33.0356 6.41149 33.0496 6.34912C33.1763 5.85017 33.3733 5.3637 33.6267 4.91464C33.6548 4.87722 33.6971 4.8398 33.7534 4.85227C37.075 5.06433 41.6915 5.99986 46.8992 7.65886C46.9836 7.68381 47.0259 7.58402 46.9555 7.5466C41.973 5.32627 36.892 4.59033 34.2319 4.32838C34.1334 4.31591 34.0771 4.21612 34.1334 4.14127C34.7667 3.29306 35.6112 2.54464 36.6246 1.92095C36.6668 1.896 36.7091 1.88353 36.7513 1.896C42.0856 2.80659 48.1941 7.27218 47.6451 6.53623C44.7317 3.39285 41.0441 2.00827 38.5951 1.40953C38.3417 1.34716 38.3136 1.03532 38.5529 0.948002C39.5522 0.53637 40.65 0.224527 41.8323 0C43.5916 0.748423 47.054 2.73174 48.6726 7.15991C48.7007 7.24723 48.8415 7.27218 48.9119 7.19733C51.3187 4.52796 56.1463 4.15375 60.0872 4.37827C60.1154 4.37827 60.1435 4.39075 60.1717 4.41569C61.0162 5.1267 61.748 5.87512 62.3251 6.67344C62.3955 6.77323 62.297 6.88549 62.1703 6.86054C60.2843 6.37407 56.2589 5.67554 51.4875 6.67344Z" fill="#6DCFF3"/>
<path d="M30.9314 37C30.8323 37 30.7168 36.9862 30.6177 36.9724C29.8582 36.8344 29.3959 36.1995 29.561 35.5646C30.337 32.7077 30.3865 29.8508 29.7261 27.3251C28.6529 23.2674 26.0771 18.9752 22.2961 14.8899C21.8173 14.3792 21.9329 13.6478 22.5438 13.2475C23.1547 12.8473 24.0298 12.9439 24.5086 13.4545C28.5538 17.8158 31.2947 22.4256 32.4669 26.8145C33.2264 29.6852 33.1769 32.8871 32.3018 36.0891C32.1532 36.6274 31.5753 37 30.9314 37Z" fill="#6DCFF3"/>
<path d="M13.9834 43C13.6338 43 13.2962 42.8164 13.1033 42.4982C12.3316 41.2129 11.6926 39.891 11.2104 38.5813C10.3302 36.1945 9.90821 33.5017 10.0167 30.9924C10.0408 30.4171 10.5231 29.9765 11.0898 30.001C11.6565 30.0255 12.0905 30.5151 12.0664 31.0903C11.9699 33.3303 12.3437 35.7294 13.1274 37.8591C13.5614 39.0464 14.1402 40.246 14.8515 41.421C15.1409 41.9106 14.9962 42.5471 14.5139 42.8531C14.3572 42.951 14.1643 43 13.9834 43Z" fill="#BCD641"/>
</svg>
